<svg width="600" height="400">
    <g class="circle1">
        <circle cx="300" cy="200" r="10"></circle>
        <circle cx="300" cy="200" r="20"></circle>
        <circle cx="300" cy="200" r="30"></circle>
        <circle cx="300" cy="200" r="40"></circle>
        <circle cx="300" cy="200" r="50"></circle>
        <circle cx="300" cy="200" r="60"></circle>
        <circle cx="300" cy="200" r="70"></circle>
        <circle cx="300" cy="200" r="80"></circle>
        <circle cx="300" cy="200" r="90"></circle>
        <circle cx="300" cy="200" r="100"></circle>
        <circle cx="300" cy="200" r="110"></circle>
        <circle cx="300" cy="200" r="120"></circle>
        <circle cx="300" cy="200" r="130"></circle>
        <circle cx="300" cy="200" r="140"></circle>
        <circle cx="300" cy="200" r="150"></circle>
        <circle cx="300" cy="200" r="160"></circle>
        <circle cx="300" cy="200" r="170"></circle>
        <circle cx="300" cy="200" r="180"></circle>
        <circle cx="300" cy="200" r="190"></circle>
    </g>
    <g class="circle2">
        <circle cx="300" cy="200" r="10"></circle>
        <circle cx="300" cy="200" r="20"></circle>
        <circle cx="300" cy="200" r="30"></circle>
        <circle cx="300" cy="200" r="40"></circle>
        <circle cx="300" cy="200" r="50"></circle>
        <circle cx="300" cy="200" r="60"></circle>
        <circle cx="300" cy="200" r="70"></circle>
        <circle cx="300" cy="200" r="80"></circle>
        <circle cx="300" cy="200" r="90"></circle>
        <circle cx="300" cy="200" r="100"></circle>
        <circle cx="300" cy="200" r="110"></circle>
        <circle cx="300" cy="200" r="120"></circle>
        <circle cx="300" cy="200" r="130"></circle>
        <circle cx="300" cy="200" r="140"></circle>
        <circle cx="300" cy="200" r="150"></circle>
        <circle cx="300" cy="200" r="160"></circle>
        <circle cx="300" cy="200" r="170"></circle>
        <circle cx="300" cy="200" r="180"></circle>
        <circle cx="300" cy="200" r="190"></circle>
    </g>
    <style>
        .circle1 {
            animation: translateCircle 20s linear infinite;
            transform-origin: center;
            stroke: #993300;
            animation-play-state: paused;
        }
        .circle2 {
            stroke: #004D66;
        }
        @keyframes translateCircle {
            0% {
                transform: translate(0em, 0em);
            }
            25% {
                transform: translate(4em, 0em);
            }
            50% {
                transform: translate(0em, 0em);
            }
            75% {
                transform: translate(-4em, 0em);
            }
            100% {
                transform: translate(0em, 0em);
            }
        }
    </style>
</svg>