<?xml version="1.0" encoding="UTF-8" standalone="no"?>
<svg
   xmlns:dc="http://purl.org/dc/elements/1.1/"
   xmlns:cc="http://creativecommons.org/ns#"
   xmlns:rdf="http://www.w3.org/1999/02/22-rdf-syntax-ns#"
   xmlns:svg="http://www.w3.org/2000/svg"
   xmlns="http://www.w3.org/2000/svg"
   xmlns:sodipodi="http://sodipodi.sourceforge.net/DTD/sodipodi-0.dtd"
   xmlns:inkscape="http://www.inkscape.org/namespaces/inkscape"
   height="512"
   width="512"
   viewBox="0 0 512 512"
   version="1.1"
   id="svg38"
   sodipodi:docname="favicon.svg"
   inkscape:export-filename="C:\git\gatsby\static\favicon.png"
   inkscape:export-xdpi="96"
   inkscape:export-ydpi="96"
   inkscape:version="0.92.4 (5da689c313, 2019-01-14)">
  <metadata
     id="metadata44">
    <rdf:RDF>
      <cc:Work
         rdf:about="">
        <dc:format>image/svg+xml</dc:format>
        <dc:type
           rdf:resource="http://purl.org/dc/dcmitype/StillImage" />
        <dc:title></dc:title>
      </cc:Work>
    </rdf:RDF>
  </metadata>
  <defs
     id="defs42" />
  <sodipodi:namedview
     pagecolor="#ffffff"
     bordercolor="#666666"
     borderopacity="1"
     objecttolerance="10"
     gridtolerance="10"
     guidetolerance="10"
     inkscape:pageopacity="0"
     inkscape:pageshadow="2"
     inkscape:window-width="1920"
     inkscape:window-height="1001"
     id="namedview40"
     showgrid="false"
     inkscape:zoom="0.59"
     inkscape:cx="200"
     inkscape:cy="200"
     inkscape:window-x="-9"
     inkscape:window-y="-9"
     inkscape:window-maximized="1"
     inkscape:current-layer="svg38" />
  <g
     id="g82"
     transform="matrix(1.28,0,0,1.28,0.97269121,-143.43566)">
    <path
       inkscape:connector-curvature="0"
       d="M 49.002,367.376 C 44.861363,352.56032 42.726096,333.26752 39.96492,316.64867 33.569815,268.11234 34.53359,213.68969 66.273855,173.45874 77.379429,158.16382 94.193466,148.18128 112.35388,143.7943 c 4.10201,-0.68284 16.44015,-9.1963 10.37051,-0.2083 -4.33798,7.09986 -13.6935,34.1691 1.47761,20.591 29.16454,-16.9913 61.45366,-29.52376 94.86517,-34.58094 13.57196,-0.81271 27.01177,1.74736 40.49383,2.90094 -8.25404,7.94071 -19.61107,13.35969 -25.92,22.72 38.0844,2.03756 72.17,23.17729 99.06212,48.93937 -6.85106,2.37582 -27.50231,-0.52606 -39.33625,3.16375 -17.32356,1.42384 -32.60892,10.38381 -46.28687,20.53688 -43.35668,30.73622 -94.29898,52.04884 -147.464,56.85 -6.661519,6.47001 -0.112366,27.96215 -5.256875,39.6668 -4.24141,22.26047 -23.144186,39.27185 -45.038125,43.6422 z"
       style="fill:#312929;fill-opacity:1;fill-rule:nonzero;stroke:none;stroke-width:4"
       class="shade"
       id="hair" />
    <path
       inkscape:connector-curvature="0"
       d="M 255.4,492.175 C 205.61418,490.39211 161.70408,464.22357 118.80975,441.68125 106.15381,436.13756 94.065321,456.16903 78.531547,452.45906 52.015012,452.03571 29.776678,428.70668 23.296371,404.14375 17.856575,385.21983 36.628843,372.35512 52.521,368.016 c 21.818632,-5.97249 41.416169,-23.43182 43.671484,-46.91352 3.292985,-15.19856 -6.56396,-41.39531 18.701646,-37.84398 37.54324,-5.74581 74.23201,-17.62722 106.47553,-37.98784 13.13589,-3.37221 30.04659,-28.98432 40.22076,-18.98366 5.07695,16.63334 20.3755,36.27496 11.3002,53.19344 -13.7542,18.3016 -23.23592,43.98202 -11.91312,65.79906 8.62032,17.49344 26.09654,28.75866 43.3825,36.8165 -8.00524,36.00398 -16.64594,72.30451 -31.80625,106.05625 -2.56307,6.59635 -11.83844,2.78543 -17.15375,4.02275 z m -1.28,-40 c 6.87656,-3.80189 19.38046,-19.27694 16.285,-21.26 -1.34943,12.9642 -26.34536,21.39606 -24.7,27.56 3.2373,-1.42346 5.49578,-4.37708 8.415,-6.3 z m -24.64,-34.56 c 30.43458,-24.38664 31.47486,-77.28873 -0.53375,-100.824 -23.77385,-21.23615 -60.60451,-14.53757 -83.62625,4.185 -19.83319,20.23263 -24.70309,54.38306 -10.02119,78.955 12.35248,25.0954 43.76697,33.37911 69.62969,28.77563 9.34801,-0.57952 17.61636,-5.01531 24.5515,-11.09163 z m -148.479,4.48 c 2.227747,-7.20227 -18.740834,13.69844 -23.48,-0.52 -17.171508,-22.97847 16.973403,-20.69895 28.145,-19.675 -13.86326,-5.56872 -45.87032,-4.51846 -31.065,17.595 5.737956,11.14121 17.872603,8.60518 26.4,2.6 z"
       style="fill:#efcebd;fill-opacity:1;fill-rule:nonzero;stroke:none;stroke-width:4"
       class="shade"
       id="face" />
    <path
       inkscape:connector-curvature="0"
       d="m 324.84,376.976 c -16.38839,6.3829 -32.86852,-0.3136 -45.37445,-11.40078 -25.27378,-18.87186 -29.51628,-60.80327 -8.11805,-83.95203 10.42636,-11.11047 26.43123,-12.86892 40.6925,-15.04719 -11.60322,9.1473 -24.40134,19.32227 -28.53062,34.53356 -8.90241,26.51634 4.30469,61.16623 33.04554,68.38332 5.45359,1.68671 22.90341,3.58349 8.28508,7.48312 z"
       style="fill:#00adef;fill-opacity:1;fill-rule:nonzero;stroke:none;stroke-width:4"
       class="shade"
       id="rightEyeLeftFill" />
    <path
       inkscape:connector-curvature="0"
       d="m 175.081,427.856 c -30.47073,-5.78363 -53.21739,-38.29544 -46.10938,-68.88313 1.83034,-21.24734 13.69355,-45.09311 37.00972,-48.24807 6.33065,-1.63343 12.64435,-3.33499 19.01966,-4.7888 -15.8413,9.98879 -28.45556,26.44469 -35.13969,43.90617 -9.85835,29.28995 7.64945,63.27929 36.29031,74.01071 15.11045,6.47177 -7.86793,4.43827 -11.07062,4.00312 z"
       style="fill:#00adef;fill-opacity:1;fill-rule:nonzero;stroke:none;stroke-width:4"
       class="shade"
       id="leftEyeLeftFill" />
    <path
       inkscape:connector-curvature="0"
       d="m 353.32,359.696 c 20.69876,-24.01073 16.01899,-62.20314 -5.44,-84.16 -9.91216,-1.64986 -16.29898,-11.1305 -1.6,-7.04 23.74442,12.99025 41.81642,44.02961 28.54703,70.40148 -5.15136,12.63525 -13.11149,25.75207 -27.16548,29.23621 -5.38952,2.95993 5.52411,-7.28188 5.65845,-8.43769 z"
       style="fill:#4c7287;fill-opacity:1;fill-rule:nonzero;stroke:none;stroke-width:4"
       class="shade"
       id="rightEyeRightFill" />
    <path
       inkscape:connector-curvature="0"
       d="m 200.041,426.896 c -42.46211,-3.82902 -67.18093,-59.07024 -43.125,-93.84 11.64293,-18.21879 34.76459,-34.32047 56.76883,-23.88461 18.83143,6.89707 33.23115,23.57078 36.44367,43.53117 8.21601,30.4185 -10.22973,69.47686 -43.0475,74.51844 l -3.43,6.3e-4 z"
       style="fill:#8ccef7;fill-opacity:1;fill-rule:nonzero;stroke:none;stroke-width:4"
       class="shade"
       id="leftEyeFill" />
    <path
       inkscape:connector-curvature="0"
       d="m 324.84,371.536 c -28.12357,-4.85494 -48.64871,-35.29858 -41.37813,-63.19023 4.40851,-19.56774 20.60949,-41.5661 42.37313,-41.09977 26.71271,4.89712 44.72392,32.1904 41.01777,58.62276 -2.05931,18.39389 -11.45918,40.06186 -30.60964,45.58599 -3.77715,0.49952 -7.61827,0.49618 -11.40313,0.0813 z"
       style="fill:#8ccef7;fill-opacity:1;fill-rule:nonzero;stroke:none;stroke-width:4"
       class="shade"
       id="rightEyeFill" />
    <path
       inkscape:connector-curvature="0"
       d="m 202.92,343.056 c -4.05314,24.23374 28.83188,-0.96837 2.155,-1.325 z"
       style="fill:#ffffff;fill-opacity:1;fill-rule:nonzero;stroke:#ffffff;stroke-width:0.31999999;stroke-linecap:butt;stroke-linejoin:miter;stroke-miterlimit:4;stroke-dasharray:none;stroke-opacity:1"
       class="shade"
       id="leftEyeSmallTint" />
    <path
       inkscape:connector-curvature="0"
       d="m 181.481,327.696 c -13.62336,23.23239 34.20992,17.4479 14.93,-1.675 -4.7198,-3.42966 -10.9359,-2.38684 -14.93,1.675 z"
       style="fill:#ffffff;fill-opacity:1;fill-rule:nonzero;stroke:#ffffff;stroke-width:0.31999999;stroke-linecap:butt;stroke-linejoin:miter;stroke-miterlimit:4;stroke-dasharray:none;stroke-opacity:1"
       class="shade"
       id="leftEyeBigTint" />
    <path
       inkscape:connector-curvature="0"
       d="m 332.2,295.697 c -18.08538,6.98785 7.09016,26.07096 8,6.72 -1.00515,-3.20344 -4.2826,-7.29425 -8,-6.72 z"
       style="fill:#ffffff;fill-opacity:1;fill-rule:nonzero;stroke:#ffffff;stroke-width:0.63999999;stroke-linecap:butt;stroke-linejoin:round;stroke-miterlimit:4;stroke-dasharray:none;stroke-opacity:1"
       class="shade"
       id="rightEyeSmallTint" />
    <path
       inkscape:connector-curvature="0"
       d="m 308.52,280.977 c -23.16535,13.48053 16.22355,36.19796 16.84,10.08 -0.55392,-8.7522 -8.80383,-13.74638 -16.84,-10.08 z"
       style="fill:#ffffff;fill-opacity:1;fill-rule:nonzero;stroke:#ffffff;stroke-width:0.63999999;stroke-linecap:butt;stroke-linejoin:round;stroke-miterlimit:4;stroke-dasharray:none;stroke-opacity:1"
       class="shade"
       id="rightEyeBigTint" />
    <path
       inkscape:connector-curvature="0"
       d="m 66.282,363.216 c -15.335601,4.76402 -33.864289,9.2884 -41.679968,24.89909 -5.630066,12.96044 1.357882,27.41901 8.668633,38.21253 10.412691,13.62351 25.841947,25.66249 43.568179,26.32365 13.918188,-0.0162 27.042376,-5.74363 39.055236,-12.28785 38.90017,22.65515 79.19694,46.85331 124.90796,51.60811 8.94433,0.89592 17.97474,0.9776 26.9281,0.15697 -10.80002,-5.52231 -23.5025,-6.24815 -34.83529,-10.63905 C 180.11467,466.54434 127.64144,442.07073 91.357665,399.67554 81.815433,388.40559 73.548011,376.05902 66.282,363.216 Z"
       style="fill:#9a8179;fill-opacity:1;fill-rule:nonzero;stroke:#9a8179;stroke-width:3.83999991;stroke-linecap:butt;stroke-linejoin:miter;stroke-miterlimit:4;stroke-dasharray:none;stroke-opacity:1"
       class="shade"
       id="jawShade" />
    <path
       inkscape:connector-curvature="0"
       d="M 66.602,359.696 C 52.86568,308.53976 39.49361,253.80794 55.339838,201.46576 c 0.988714,-6.00063 11.533757,-30.35816 3.800912,-14.0079 -18.407551,32.68257 -26.39958,70.6153 -22.83875,107.96372 1.652806,24.26835 6.008205,48.26766 11.42,71.95442 6.565374,-1.56175 14.10751,-2.3256 18.88,-7.68 z"
       style="fill:#171717;fill-opacity:1;fill-rule:nonzero;stroke:#181818;stroke-width:3.83999991;stroke-linecap:butt;stroke-linejoin:miter;stroke-miterlimit:4;stroke-dasharray:none;stroke-opacity:1"
       class="shade"
       id="backheadShade" />
    <path
       inkscape:connector-curvature="0"
       d="m 114.601,170.897 c 0.1567,5.96685 -1.64254,12.70466 4.48,16.32 13.93454,-19.52962 35.4829,-31.03923 54.72,-44.48 -14.4055,5.0496 -28.90882,9.88581 -41.74741,18.3533 -5.81753,3.2689 -11.63506,6.5378 -17.45259,9.8067 z"
       style="fill:#181818;fill-opacity:1;fill-rule:nonzero;stroke:#181818;stroke-width:4.15999985;stroke-linecap:butt;stroke-linejoin:round;stroke-miterlimit:4;stroke-dasharray:none;stroke-opacity:1"
       class="shade"
       id="backHairShade" />
    <path
       inkscape:connector-curvature="0"
       d="m 225.64,173.137 c 39.09517,-6.12609 72.62355,18.12396 106.88,32.32 -25.82848,-27.35425 -61.06978,-50.53528 -100.16,-48 -4.42206,3.95881 -6.50128,9.86066 -6.72,15.68 z"
       style="fill:#181818;fill-opacity:1;fill-rule:nonzero;stroke:#181818;stroke-width:3.83999991;stroke-linecap:butt;stroke-linejoin:miter;stroke-miterlimit:4;stroke-dasharray:none;stroke-opacity:1"
       class="shade"
       id="frontHairShade" />
    <path
       inkscape:connector-curvature="0"
       d="m 96.361,285.137 c 60.27617,3.32632 120.76577,-16.23383 168.639,-52.8 -3.07308,-8.8671 -5.96541,-17.69153 -13.99469,-5.41523 -43.38529,35.78347 -99.0328,54.17798 -154.64431,58.21523 z"
       style="fill:#9a8179;fill-opacity:1;fill-rule:nonzero;stroke:#9a8179;stroke-width:3.83999991;stroke-linecap:butt;stroke-linejoin:miter;stroke-miterlimit:4;stroke-dasharray:none;stroke-opacity:1"
       class="shade"
       id="foreheadShade" />
    <path
       inkscape:connector-curvature="0"
       d="m 193.64,304.337 c 79.20475,7.78078 72.67773,114.43784 12.95405,123.33482 C 127.83871,421.95607 133.57164,325.79055 193.64,304.337 Z"
       style="fill:none;stroke:#000000;stroke-width:3.83999991"
       class="line"
       id="lines1" />
    <path
       inkscape:connector-curvature="0"
       d="M 207.081,427.221 C 108.96484,446.08677 101.64531,302.69606 193.641,304.336"
       style="fill:none;stroke:#000000;stroke-width:3.83999991"
       class="line"
       id="lines2" />
    <path
       inkscape:connector-curvature="0"
       d="m 320.04,265.616 c 78.17725,11.74101 42.79063,123.12265 -3.40512,104.49962 C 268.57093,347.80103 272.85535,281.95439 320.04,265.616 Z"
       style="fill:none;stroke:#000000;stroke-width:3.83999991"
       class="line"
       id="lines3" />
    <path
       inkscape:connector-curvature="0"
       d="m 304.68,381.136 c 113.71622,-13.62889 73.00191,-125.21531 15.36,-115.52 -19.64316,1.13381 -31.95772,4.91189 -42.56,8"
       style="fill:none;stroke:#000000;stroke-width:3.83999991"
       class="line"
       id="lines4" />
    <path
       inkscape:connector-curvature="0"
       d="M 305.96,381.776 C 253.85079,360.76171 246.28365,311.93508 277.48,273.616"
       style="fill:none;stroke:#000000;stroke-width:3.83999991"
       class="line"
       id="lines5" />
    <path
       inkscape:connector-curvature="0"
       d="m 305.32,381.456 c -6.85062,38.10239 -19.40798,74.98511 -34.88,110.4"
       style="fill:none;stroke:#000000;stroke-width:3.83999991"
       class="line"
       id="lines6" />
    <path
       inkscape:connector-curvature="0"
       d="M 115.89408,440.36342 C 161.4933,466.93893 216.5748,500.87558 269.48,492.496 c 2.13399,-0.17552 -2.11427,0.33904 0,0"
       style="fill:none;stroke:#000000;stroke-width:3.83999991"
       class="line"
       id="lines7" />
    <path
       inkscape:connector-curvature="0"
       d="m 49.32,368.336 c -80.116072,39.6821 32.144579,116.2418 66.57408,72.02742"
       style="fill:none;stroke:#000000;stroke-width:3.83999991"
       class="line"
       id="lines8" />
    <path
       inkscape:connector-curvature="0"
       d="M 49.32,368.336 C 15.949108,278.75216 27.447525,165.31574 127.72,137.618"
       style="fill:none;stroke:#000000;stroke-width:3.83999991"
       class="line"
       id="lines9" />
    <path
       inkscape:connector-curvature="0"
       d="m 127.721,137.618 c -7.88338,8.40386 -10.68987,20.1851 -11.52,31.36"
       style="fill:none;stroke:#000000;stroke-width:3.83999991"
       class="line"
       id="lines10" />
    <path
       inkscape:connector-curvature="0"
       d="m 116.201,168.978 c 43.45272,-27.4525 95.84775,-43.32381 147.518,-37.441"
       style="fill:none;stroke:#000000;stroke-width:3.83999991"
       class="line"
       id="lines11" />
    <path
       inkscape:connector-curvature="0"
       d="m 263.719,131.537 c -11.97359,5.24941 -21.96258,14.2102 -30.08,24.32"
       style="fill:none;stroke:#000000;stroke-width:3.83999991"
       class="line"
       id="lines12" />
    <path
       inkscape:connector-curvature="0"
       d="m 233.64,155.858 c -3.90473,4.38922 -8.03837,9.47457 -8,15.68"
       style="fill:none;stroke:#000000;stroke-width:3.83999991"
       class="line"
       id="lines13" />
    <path
       inkscape:connector-curvature="0"
       d="m 233.639,155.857 c 38.57084,1.08235 72.86725,22.97327 100.16,48.64"
       style="fill:none;stroke:#000000;stroke-width:3.83999991"
       class="line"
       id="lines14" />
    <path
       inkscape:connector-curvature="0"
       d="m 333.799,204.497 c -25.28601,-0.93692 -51.05768,3.25585 -73.92,14.4"
       style="fill:none;stroke:#000000;stroke-width:3.83999991"
       class="line"
       id="lines15" />
    <path
       inkscape:connector-curvature="0"
       d="m 96.361,285.137 c 59.65671,-4.58454 116.70526,-29.49885 163.52,-66.24"
       style="fill:none;stroke:#000000;stroke-width:3.83999991"
       class="line"
       id="lines16" />
    <path
       inkscape:connector-curvature="0"
       d="m 49.32,368.336 c 43.44477,-16.54532 49.33323,-46.12996 47.04,-83.2"
       style="fill:none;stroke:#000000;stroke-width:3.83999991"
       class="line"
       id="lines17" />
    <path
       inkscape:connector-curvature="0"
       d="m 277.48,273.616 c -3.31232,-18.70495 -9.16037,-37.22261 -17.92,-54.079"
       style="fill:none;stroke:#000000;stroke-width:3.83999991"
       class="line"
       id="lines18" />
    <path
       inkscape:connector-curvature="0"
       d="m 86.122,402.576 c -53.064488,-13.54691 -29.237119,45.62389 -3.84,16.96"
       style="fill:none;stroke:#000000;stroke-width:3.83999991"
       class="line"
       id="lines19" />
    <path
       inkscape:connector-curvature="0"
       d="m 243.561,457.936 c 11.44571,-6.73588 22.5173,-15.47232 28.159,-27.84"
       style="fill:none;stroke:#000000;stroke-width:3.83999991"
       class="line"
       id="lines20" />
  </g>
</svg>
