<svg xmlns="http://www.w3.org/2000/svg" height="500" width="800" viewBox="0 0 800 500">
  <path
    id="bracket1"
    class="line"
    style="fill:#00c1c1;fill-opacity:1;stroke:#09616c;stroke-width:7.67999983;"
    d="m 68.378313,250 c 10.56,-8 17.6,-15.36 21.12,-22.72 4.8,-8.96 7.36,-20.16 7.36,-32.96 V 81.681001 c 0,-11.52 3.519997,-21.12 10.239997,-29.12 7.04,-7.680001 15.36,-11.840001 25.6,-12.800002 6.72,-0.64 10.88,-1.6 12.8,-3.52 2.88,-2.88 4.16,-6.08 4.16,-9.92 0,-3.52 -1.28,-6.72 -3.84,-9.28 -2.56,-2.56 -6.72,-3.84 -11.84,-3.84 -16.64,0 -30.4,5.44 -41.279997,16 -14.72,14.400001 -22.08,31.680002 -22.08,52.480002 V 194.321 c 0,11.52 -3.52,21.12 -10.240003,29.12 -7.04,7.68 -16,11.84 -26.56,12.8 -5.76,0.64 -9.6,1.92 -11.84,4.16 -2.56,2.56 -3.84,5.439 -3.84,9.599 0,4.16 1.28,7.36 3.84,9.6 2.24,2.24 6.08,3.84 11.84,4.48 10.56,0.64 19.52,5.12 26.56,13.12 6.720003,7.68 10.240003,17.28 10.240003,28.48 v 112.639 c 0,19.52 6.08,35.84 18.56,48.64 12.799997,13.12 27.519997,19.84 44.799997,19.84 5.12,0 9.28,-1.28 11.84,-3.84 2.56,-2.56 3.84,-5.76 3.84,-9.6 0,-3.84 -1.28,-7.04 -3.84,-9.28 -1.92,-1.92 -6.4,-3.2 -13.12,-3.84 -10.24,-0.96 -18.88,-5.44 -25.6,-13.44 -6.72,-7.68 -10.239997,-17.28 -10.239997,-28.8 v -112.32 c 0,-13.12 -2.24,-23.68 -6.4,-31.68 -4.16,-8.32 -11.52,-16.32 -22.08,-23.999 z"
    />
  <path
    id="bracket2"
    class="line"
    style="fill:#00c1c1;fill-opacity:1;stroke:#09616c;stroke-width:7.67999983;"
    d="m 731.6217,249.84 c -10.56,-8 -17.6,-15.36 -21.12,-22.4 -4.8,-9.28 -7.36,-20.16 -7.36,-33.28 V 81.841001 c 0,-11.84 -3.2,-21.44 -10.24,-29.12 -6.72,-7.680001 -15.36,-12.16 -25.6,-12.8 -6.72,-0.64 -10.88,-1.92 -12.8,-3.84 -2.88,-2.56 -4.16,-5.76 -4.16,-9.6 0,-3.84 1.28,-7.04 3.84,-9.28 2.56,-2.56 6.72,-3.84 11.84,-3.84 16.64,0 30.4,5.12 41.28,16 14.72,14.08 22.08,31.68 22.08,52.48 V 194.161 c 0,11.52 3.52,21.12 10.56,29.12 7.04,7.68 15.68,11.84 26.56,12.8 5.44,0.64 9.28,2.24 11.84,4.48 2.24,2.24 3.52,5.44 3.52,9.279 0,4.16 -1.28,7.36 -3.52,9.6 -2.56,2.56 -6.4,3.84 -11.84,4.48 -10.88,0.96 -19.84,5.12 -26.56,13.12 -7.04,7.68 -10.56,17.28 -10.56,28.8 v 112.319 c 0,19.84 -6.08,35.84 -18.56,48.96 -12.48,13.12 -27.52,19.52 -44.8,19.52 -5.12,0 -9.28,-1.28 -11.84,-3.52 -2.56,-2.56 -3.84,-5.76 -3.84,-9.92 0,-3.52 1.28,-6.72 3.84,-9.28 1.92,-1.92 6.4,-3.2 13.12,-3.84 10.56,-0.96 18.88,-5.44 25.6,-13.44 7.04,-7.68 10.24,-17.28 10.24,-28.8 v -112 c 0,-13.12 2.24,-23.68 6.4,-32 4.16,-8 11.52,-15.999 22.08,-23.999 z"
    />
  <path
    class="shade"
    style="fill:#312929;fill-opacity:1;fill-rule:nonzero;stroke:none;stroke-width:4"
    d="m 249.72202,305.50867 c -4.14064,-14.81568 -6.27591,-34.10848 -9.03708,-50.72733 -6.39511,-48.53633 -5.43133,-102.95897 26.30893,-143.18993 11.10558,-15.29491 27.91961,-25.27745 46.08003,-29.66443 4.10201,-0.68284 16.44015,-9.19631 10.37051,-0.20831 -4.33798,7.09987 -13.6935,34.16911 1.47761,20.59101 29.16454,-16.9913 61.45366,-29.52376 94.86517,-34.58094 13.57196,-0.81272 27.01177,1.74736 40.49383,2.90094 -8.25404,7.9407 -19.61107,13.35969 -25.92,22.72 38.0844,2.03755 72.17,23.17728 99.06212,48.93937 -6.85106,2.37581 -27.50231,-0.52607 -39.33625,3.16375 -17.32356,1.42384 -32.60892,10.38381 -46.28687,20.53688 -43.35668,30.73621 -94.29898,52.04883 -147.464,56.84999 -6.66152,6.47001 -0.11237,27.96215 -5.25688,39.6668 -4.24141,22.26047 -23.14418,39.27185 -45.03812,43.6422 z"
    />
  <path
    class="shade"
    style="fill:#efcebd;fill-opacity:1;fill-rule:nonzero;stroke:none;stroke-width:4"
    d="m 456.12002,430.30767 c -49.78582,-1.78289 -93.69592,-27.95143 -136.59025,-50.49375 -12.65594,-5.54369 -24.74443,14.48778 -40.27821,10.77781 -26.51653,-0.42335 -48.75486,-23.75238 -55.23517,-48.31531 -5.4398,-18.92392 13.33247,-31.78863 29.22463,-36.12775 21.81863,-5.97249 36.85367,-25.11932 43.23398,-47.10102 3.29299,-15.19856 -9.6178,-40.41231 15.64781,-36.86098 37.54324,-5.74581 77.72335,-18.42272 109.96687,-38.78334 13.13589,-3.37221 30.04659,-28.98431 40.22076,-18.98365 5.07695,16.63333 21.0005,36.64995 11.3002,53.19343 -13.7542,18.3016 -18.98592,44.10702 -10.66312,65.79906 8.62032,17.49344 24.84654,28.75866 42.1325,36.8165 -8.00524,36.00398 -16.64594,72.30451 -31.80625,106.05625 -2.56307,6.59635 -11.83844,2.78543 -17.15375,4.02275 z m -1.28,-40 c 6.87656,-3.80189 19.38046,-19.27694 16.285,-21.26 -1.34943,12.9642 -26.34536,21.39606 -24.7,27.56 3.2373,-1.42346 5.49578,-4.37708 8.415,-6.3 z m -24.64,-34.56 c 30.43458,-24.38664 31.47486,-77.28873 -0.53375,-100.824 -23.77385,-21.23615 -60.60451,-14.53757 -83.62625,4.185 -19.83319,20.23263 -23.89059,54.38306 -10.02119,78.955 12.35248,25.0954 43.76697,33.37911 69.62969,28.77563 9.34801,-0.57952 17.61636,-5.01531 24.5515,-11.09163 z m -148.479,4.48 c 2.22774,-7.20227 -18.74084,13.69844 -23.48,-0.52 -17.17151,-22.97847 16.9734,-20.69895 28.145,-19.675 -13.86326,-5.56872 -45.87032,-4.51846 -31.065,17.595 5.73795,11.14121 17.8726,8.60518 26.4,2.6 z"
    />
  <path
    class="shade"
    style="fill:#00adef;fill-opacity:1;fill-rule:nonzero;stroke:none;stroke-width:4"
    d="m 523.88065,315.37383 c -16.26339,6.66415 -31.18915,-0.57876 -43.69508,-11.66594 -25.27378,-18.87186 -29.51628,-60.80327 -8.11805,-83.95203 7.17376,-11.09975 26.43123,-12.86892 40.6925,-15.04719 -11.60322,9.1473 -24.40134,19.32227 -28.53062,34.53356 -8.90241,26.51634 4.30469,61.16623 33.04554,68.38332 5.45359,1.68671 21.22404,3.84865 6.60571,7.74828 z"
    />
  <path
    class="shade"
    style="fill:#00adef;fill-opacity:1;fill-rule:nonzero;stroke:none;stroke-width:4.02821445"
    d="m 376.47231,365.98867 c -30.90211,-5.78363 -53.97078,-38.29544 -46.76213,-68.88313 1.85627,-21.24734 13.88737,-45.09311 37.53365,-48.24807 6.50869,-2.6057 12.82339,-3.33499 19.28891,-4.7888 -16.06554,9.98879 -28.8584,26.44469 -35.63715,43.90617 -9.99788,29.28995 7.75775,63.27929 36.80407,74.01071 15.32439,6.47177 -7.9793,4.43827 -11.22735,4.00312 z"
    />
  <path
    class="shade"
    style="fill:#4c7287;fill-opacity:1;fill-rule:nonzero;stroke:none;stroke-width:4"
    d="m 554.04002,297.82867 c 20.69876,-24.01073 16.01899,-62.20314 -5.44,-84.16 -9.91216,-1.64986 -20.36484,-10.77695 -1.6,-7.04 23.74442,12.99025 41.81642,44.02961 28.54703,70.40148 -5.15136,12.63525 -13.11149,25.75207 -27.16548,29.23621 -5.38952,2.95993 1.36986,-4.71862 5.65845,-8.43769 z"
    />
  <path
    class="shade"
    style="fill:#8ccef7;fill-opacity:1;fill-rule:nonzero;stroke:none;stroke-width:4"
    d="m 400.76102,365.02867 c -42.46211,-3.82902 -67.18093,-59.07024 -43.125,-93.84 11.64293,-18.21879 34.76459,-34.32047 56.76883,-23.88461 18.83143,6.89707 33.23115,23.57078 36.44367,43.53117 8.21601,30.4185 -10.22973,69.47686 -43.0475,74.51844 l -3.43,6.3e-4 z"
    />
  <path
    class="shade"
    style="fill:#8ccef7;fill-opacity:1;fill-rule:nonzero;stroke:none;stroke-width:4"
    d="m 525.56002,309.66867 c -28.12357,-4.85494 -48.64871,-35.29858 -41.37813,-63.19023 4.40851,-19.56774 20.60949,-41.5661 42.37313,-41.09977 26.71271,4.89712 44.72392,32.1904 41.01777,58.62276 -2.05931,18.39389 -11.45918,40.06186 -30.60964,45.58599 -3.77715,0.49952 -7.61827,0.49618 -11.40313,0.0813 z"
    />
  <path
    class="shade"
    style="fill:#ffffff;fill-opacity:1;fill-rule:nonzero;stroke:#ffffff;stroke-width:0.31999999;stroke-linecap:butt;stroke-linejoin:miter;stroke-miterlimit:4;stroke-dasharray:none;stroke-opacity:1"
    d="m 403.64002,281.18867 c -4.05314,24.23374 28.83188,-0.96837 2.155,-1.325 z"
    />
  <path
    class="shade"
    style="fill:#ffffff;fill-opacity:1;fill-rule:nonzero;stroke:#ffffff;stroke-width:0.31999999;stroke-linecap:butt;stroke-linejoin:miter;stroke-miterlimit:4;stroke-dasharray:none;stroke-opacity:1"
    d="m 382.20102,265.82867 c -13.62336,23.23239 34.20992,17.4479 14.93,-1.675 -4.7198,-3.42966 -10.9359,-2.38684 -14.93,1.675 z"
    />
  <path
    class="shade"
    style="fill:#ffffff;fill-opacity:1;fill-rule:nonzero;stroke:#ffffff;stroke-width:0.63999999;stroke-linecap:butt;stroke-linejoin:round;stroke-miterlimit:4;stroke-dasharray:none;stroke-opacity:1"
    d="m 532.92002,233.82967 c -18.08538,6.98785 7.09016,26.07096 8,6.72 -1.00515,-3.20344 -4.2826,-7.29425 -8,-6.72 z"
    />
  <path
     
    class="shade"
    style="fill:#ffffff;fill-opacity:1;fill-rule:nonzero;stroke:#ffffff;stroke-width:0.63999999;stroke-linecap:butt;stroke-linejoin:round;stroke-miterlimit:4;stroke-dasharray:none;stroke-opacity:1"
    d="m 509.24002,219.10967 c -23.16535,13.48053 16.22355,36.19796 16.84,10.08 -0.55392,-8.7522 -8.80383,-13.74638 -16.84,-10.08 z"
    />
  <path
    class="shade"
    style="fill:#9a8179;fill-opacity:1;fill-rule:nonzero;stroke:#9a8179;stroke-width:3.82034659;stroke-linecap:butt;stroke-linejoin:miter;stroke-miterlimit:4;stroke-dasharray:none;stroke-opacity:1"
    d="m 268.59052,299.50781 c -15.17942,4.7639 -32.21554,11.09003 -39.95162,26.70032 -6.61419,12.96011 -5.50549,28.24165 6.20779,37.61233 10.30665,13.62315 25.57877,25.66181 43.12447,26.32297 13.77644,-0.0162 29.36851,-5.24351 39.75657,-12.28753 40.13167,21.27959 77.29129,46.85207 122.53678,51.60675 8.85324,0.89592 19.50226,1.41606 28.36445,0.59542 -12.89001,-1.72417 -24.30474,-4.89911 -37.78469,-8.77919 -51.88853,-16.00534 -102.58791,-41.71575 -138.50215,-84.10982 -9.44505,-11.26967 -16.55959,-24.81855 -23.7516,-37.66125 z"
    />
  <path
    class="shade"
    style="fill:#171717;fill-opacity:1;fill-rule:nonzero;stroke:#181818;stroke-width:3.83999991;stroke-linecap:butt;stroke-linejoin:miter;stroke-miterlimit:4;stroke-dasharray:none;stroke-opacity:1"
    d="M 267.32202,297.82867 C 253.5857,246.67243 240.21363,191.94061 256.05986,139.59844 c 0.98871,-6.00064 11.53375,-30.35816 3.80091,-14.00791 -18.40755,32.68258 -26.39958,70.6153 -22.83875,107.96372 1.6528,24.26835 6.49434,50.30059 12.83421,71.3799 6.56538,-1.56175 11.1465,-3.16529 17.46579,-7.10548 z"
    />
  <path
    class="shade"
    style="fill:#181818;fill-opacity:1;fill-rule:nonzero;stroke:#181818;stroke-width:4.30889797;stroke-linecap:butt;stroke-linejoin:round;stroke-miterlimit:4;stroke-dasharray:none;stroke-opacity:1"
    d="m 316.89547,109.19404 c 0.16868,5.9474 0.39752,13.66468 2.0767,15.77313 2.98389,-1.75987 38.22732,-34.35757 60.96102,-46.69356 -15.50568,5.03314 -32.04762,12.51889 -45.86676,20.95879 z"
    />
  <path
    class="shade"
    style="fill:#181818;fill-opacity:1;fill-rule:nonzero;stroke:#181818;stroke-width:3.83999991;stroke-linecap:butt;stroke-linejoin:miter;stroke-miterlimit:4;stroke-dasharray:none;stroke-opacity:1"
    d="m 426.36002,111.26968 c 39.09517,-6.12609 72.80667,16.82333 107.06312,31.01937 -25.82848,-27.35425 -61.2529,-49.23465 -100.34312,-46.69937 -4.42206,3.9588 -6.50128,9.86066 -6.72,15.68 z"
    />
  <path
    class="shade"
    style="fill:#9a8179;fill-opacity:1;fill-rule:nonzero;stroke:#9a8179;stroke-width:3.83999991;stroke-linecap:butt;stroke-linejoin:miter;stroke-miterlimit:4;stroke-dasharray:none;stroke-opacity:1"
    d="m 297.08102,223.26967 c 60.27617,3.32632 120.76577,-16.23383 168.639,-52.8 -3.07308,-8.86709 -5.59041,-17.25402 -13.61969,-4.97772 -43.38529,35.78346 -99.4078,53.74047 -155.01931,57.77772 z"
    />
  <path
    class="line"
    style="fill:none;stroke:#000000;stroke-width:3.83999991"
    d="m 394.36002,242.46967 c 79.20475,7.78078 72.67773,114.43784 12.95405,123.33482 -78.75534,-5.71575 -73.02241,-101.88127 -12.95405,-123.33482 z"
    />
  <path
    class="line"
    style="fill:none;stroke:#000000;stroke-width:3.83999991"
    d="M 407.31407,365.80449 C 309.19791,384.67026 302.36433,240.82973 394.36002,242.46967"
    />
  <path
    class="line"
    style="fill:none;stroke:#000000;stroke-width:3.83999991"
    d="m 520.76002,203.74867 c 78.17725,11.74101 42.79063,123.12265 -3.40512,104.49962 -48.06395,-22.31459 -43.77953,-88.16123 3.40512,-104.49962 z"
    />
  <path
    class="line"
    style="fill:none;stroke:#000000;stroke-width:3.83999991"
    d="m 505.40002,319.26867 c 113.71622,-13.62889 73.00191,-125.21531 15.36,-115.52 -19.64316,1.13381 -31.95772,4.91189 -42.56,8"
    />
  <path
    class="line"
    style="fill:none;stroke:#000000;stroke-width:3.83999991"
    d="m 506.68002,319.90867 c -52.10921,-21.01429 -59.67635,-69.84092 -28.48,-108.16"
    />
  <path
    class="line"
    style="fill:none;stroke:#000000;stroke-width:3.83999991"
    d="m 506.04002,319.58867 c -6.85062,38.10239 -20.82219,75.95738 -36.29421,111.37227"
    />
  <path
    class="line"
    style="fill:none;stroke:#000000;stroke-width:3.83999991;stroke-linecap:butt"
    d="m 250.04002,306.46867 c -33.37089,-89.58384 -21.87248,-203.02025 78.4,-230.71799"
    />
  <path
    class="line"
    style="fill:none;stroke:#000000;stroke-width:4.29128981"
    d="m 328.31995,75.93151 c -7.72457,10.711 -10.58552,16.93638 -11.39893,31.17917 -0.92731,6.64494 -0.41032,14.67489 3.25217,19.60903"
    />
  <path
    class="line"
    style="fill:none;stroke:#000000;stroke-width:3.83999991"
    d="m 316.92102,107.11068 c 43.45272,-27.4525 95.84775,-43.32382 147.518,-37.441"
    />
  <path
    class="line"
    style="fill:none;stroke:#000000;stroke-width:3.83999991"
    d="m 464.43902,69.66968 c -11.97359,5.2494 -21.96258,14.21019 -30.08,24.32"
    />
  <path
    class="line"
    style="fill:none;stroke:#000000;stroke-width:3.83999991"
    d="m 434.36002,93.99068 c -4.96723,4.01422 -9.16337,13.47456 -8.125,19.2425"
    />
  <path
    class="line"
    style="fill:none;stroke:#000000;stroke-width:3.83999991"
    d="m 434.35902,93.98968 c 38.57084,1.08234 72.86725,22.97326 100.16,48.64"
    />
  <path
    class="line"
    style="fill:none;stroke:#000000;stroke-width:3.83999991"
    d="m 534.51902,142.62968 c -25.28601,-0.93692 -51.80898,3.74198 -74.6713,14.88614"
    />
  <path
    class="line"
    style="fill:none;stroke:#000000;stroke-width:3.83999991"
    d="m 297.08102,223.26967 c 59.65671,-4.58454 116.70526,-29.49885 163.52,-66.23999"
    />
  <path
    class="line"
    style="fill:none;stroke:#000000;stroke-width:3.83999991;stroke-linecap:butt"
    d="m 250.04002,306.46867 c 43.44477,-16.54532 48.84709,-47.98612 46.55386,-85.05616"
    />
  <path
    class="line"
    style="fill:none;stroke:#000000;stroke-width:3.83999991"
    d="m 478.20002,211.74867 c -3.31232,-18.70495 -9.16037,-37.22261 -17.92,-54.07899"
    />
  <path
    class="line"
    style="fill:none;stroke:#000000;stroke-width:3.83999991"
    d="m 444.28102,396.06867 c 11.44571,-6.73588 22.5173,-15.47232 28.159,-27.84"
    />
  <path
    class="line"
    style="fill:none;stroke:#000000;stroke-width:3.83999991;stroke-linecap:square;stroke-miterlimit:4;stroke-dasharray:none"
    d="m 250.04002,306.46867 c -80.11607,39.6821 32.64458,116.1168 67.07408,71.90242"
    />
  <path
    class="line"
    style="fill:none;stroke:#000000;stroke-width:3.83999991;stroke-linecap:square"
    d="m 317.5741,377.85609 c 45.59922,26.57551 98.78037,60.77733 151.68557,52.39775"
    />
  <path
    class="line"
    style="fill:none;stroke:#000000;stroke-width:3.83999991"
    d="m 286.38602,340.03267 c -53.06448,-13.54691 -29.23712,45.62389 -3.84,16.96"
    />
</svg>
