<svg xmlns="http://www.w3.org/2000/svg" width="1250" height="960" viewBox="0 0 1250 960">
   <text
   id="404"
   class="text"
   style="font-size:730px;font-family:sans-serif;fill:#00c1c1;stroke:#09616c;stroke-width:15;stroke-linejoin:round;"
   x="30"
   y="540">404</text>
   <text
   id="questionMark"
   class="text"
   style="font-size:400px;font-family:sans-serif;fill:#00c1c1;stroke:#09616c;stroke-width:11;stroke-linejoin:round;"
   x="720"
   y="860">?</text>
   <path
   id="hair"
   class="shade"
   style="fill:#312929;fill-opacity:1;fill-rule:nonzero;stroke:none;stroke-width:4"
   d="m 381.79528,820.96888 c -4.1407,-14.81568 -6.276,-34.10848 -9.0371,-50.72733 -6.3951,-48.53633 -5.4314,-102.95898 26.3089,-143.18993 11.1056,-15.29491 27.9196,-25.27745 46.08,-29.66443 4.102,-0.68284 16.4402,-9.19631 10.3705,-0.20831 -4.3379,7.09986 -13.6935,34.16911 1.4777,20.591 29.1645,-16.99129 61.4536,-29.52375 94.8651,-34.58093 13.572,-0.81272 27.0118,1.74736 40.4939,2.90093 -8.2541,7.94071 -19.6111,13.3597 -25.92,22.72 38.0844,2.03756 72.17,23.17729 99.0621,48.93938 -6.8511,2.37581 -27.5023,-0.52607 -39.3363,3.16375 -17.3235,1.42384 -32.6089,10.3838 -46.2868,20.53687 -43.3567,30.73622 -94.299,52.04884 -147.464,56.85 -6.6616,6.47001 -0.1124,27.96215 -5.2569,39.6668 -4.2414,22.26047 -23.1442,39.27185 -45.0381,43.6422 z" />
   <path
   id="face"
   class="shade"
   style="fill:#efcebd;fill-opacity:1;fill-rule:nonzero;stroke:none;stroke-width:4"
   d="m 588.19328,945.76788 c -49.7859,-1.78289 -93.696,-27.95143 -136.5903,-50.49375 -12.6559,-5.54369 -24.7444,14.48778 -40.2782,10.77781 -26.5165,-0.42335 -48.7549,-23.75238 -55.2352,-48.31531 -5.4398,-18.92392 13.3325,-31.78863 29.2247,-36.12775 21.8186,-5.97249 41.4161,-23.43182 43.6714,-46.91352 3.293,-15.19856 -6.5639,-41.39531 18.7017,-37.84398 37.5432,-5.74581 74.232,-17.62722 106.4755,-37.98784 13.1359,-3.37221 30.0466,-28.98432 40.2208,-18.98366 5.0769,16.63334 20.3755,36.27496 11.3002,53.19344 -13.7542,18.3016 -23.2359,43.98202 -11.9131,65.79906 8.6203,17.49344 26.0965,28.75866 43.3825,36.8165 -8.0053,36.00398 -16.646,72.30451 -31.8063,106.05625 -2.5631,6.59635 -11.8384,2.78543 -17.1537,4.02275 z m -1.28,-40 c 6.8765,-3.80189 19.3804,-19.27694 16.285,-21.26 -1.3495,12.9642 -26.3454,21.39606 -24.7,27.56 3.2373,-1.42346 5.4957,-4.37708 8.415,-6.3 z m -24.64,-34.56 c 30.4345,-24.38664 31.4748,-77.28873 -0.5338,-100.824 -23.7738,-21.23615 -60.6045,-14.53757 -83.6262,4.185 -19.8332,20.23263 -24.7031,54.38306 -10.0212,78.955 12.3524,25.0954 43.7669,33.37911 69.6297,28.77563 9.348,-0.57952 17.6163,-5.01531 24.5515,-11.09163 z m -148.479,4.48 c 2.2277,-7.20227 -18.7409,13.69844 -23.48,-0.52 -17.1716,-22.97847 16.9734,-20.69895 28.145,-19.675 -13.8633,-5.56872 -45.8704,-4.51846 -31.065,17.595 5.7379,11.14121 17.8726,8.60518 26.4,2.6 z" />
   <path
   id="rightEyeLeftFill"
   class="shade"
   style="fill:#00adef;fill-opacity:1;fill-rule:nonzero;stroke:none;stroke-width:4"
   d="m 657.63328,830.56888 c -16.3884,6.3829 -32.8686,-0.3136 -45.3745,-11.40078 -25.2738,-18.87186 -29.5163,-60.80327 -8.118,-83.95203 10.4263,-11.11047 26.4312,-12.86892 40.6925,-15.04719 -11.6033,9.1473 -24.4014,19.32227 -28.5307,34.53356 -8.9024,26.51634 4.3047,61.16623 33.0456,68.38332 5.4536,1.68671 22.9034,3.58349 8.2851,7.48312 z" />
   <path
   id="leftEyeLeftFill"
   class="shade"
   style="fill:#00adef;fill-opacity:1;fill-rule:nonzero;stroke:none;stroke-width:4"
   d="m 507.87428,881.44888 c -30.4708,-5.78363 -53.2174,-38.29544 -46.1094,-68.88313 1.8303,-21.24734 13.6935,-45.09311 37.0097,-48.24807 6.3306,-1.63343 12.6443,-3.33499 19.0197,-4.7888 -15.8413,9.98879 -28.4556,26.44469 -35.1397,43.90617 -9.8584,29.28995 7.6494,63.27929 36.2903,74.01071 15.1104,6.47177 -7.868,4.43827 -11.0706,4.00312 z" />
   <path
   id="rightEyeRightFill"
   class="shade"
   style="fill:#4c7287;fill-opacity:1;fill-rule:nonzero;stroke:none;stroke-width:4"
   d="m 686.11328,813.28888 c 20.6987,-24.01073 16.0189,-62.20314 -5.44,-84.16 -9.9122,-1.64986 -16.299,-11.1305 -1.6,-7.04 23.7444,12.99025 41.8164,44.02961 28.547,70.40148 -5.1514,12.63525 -13.1115,25.75207 -27.1655,29.23621 -5.3895,2.95993 5.5241,-7.28188 5.6585,-8.43769 z" />
   <path
   id="leftEyeFill"
   class="shade"
   style="fill:#8ccef7;fill-opacity:1;fill-rule:nonzero;stroke:none;stroke-width:4"
   d="m 532.83428,880.48888 c -42.4622,-3.82902 -67.181,-59.07024 -43.125,-93.84 11.6429,-18.21879 34.7645,-34.32047 56.7688,-23.88461 18.8314,6.89707 33.2311,23.57078 36.4437,43.53117 8.216,30.4185 -10.2298,69.47686 -43.0475,74.51844 l -3.43,6.3e-4 z" />
   <path
   id="rightEyeFill"
   class="shade"
   style="fill:#8ccef7;fill-opacity:1;fill-rule:nonzero;stroke:none;stroke-width:4"
   d="m 657.63328,825.12888 c -28.1236,-4.85494 -48.6488,-35.29858 -41.3782,-63.19023 4.4085,-19.56774 20.6095,-41.5661 42.3732,-41.09977 26.7127,4.89712 44.7239,32.1904 41.0177,58.62276 -2.0593,18.39389 -11.4592,40.06186 -30.6096,45.58599 -3.7772,0.49952 -7.6183,0.49618 -11.4031,0.0813 z" />
   <path
   id="leftEyeSmallTint"
   class="shade"
   style="fill:#ffffff;fill-opacity:1;fill-rule:nonzero;stroke:#ffffff;stroke-width:0.31999999;stroke-linecap:butt;stroke-linejoin:miter;stroke-miterlimit:4;stroke-dasharray:none;stroke-opacity:1"
   d="m 535.71328,796.64888 c -4.0532,24.23374 28.8318,-0.96837 2.155,-1.325 z" />
   <path
   id="leftEyeBigTint"
   class="shade"
   style="fill:#ffffff;fill-opacity:1;fill-rule:nonzero;stroke:#ffffff;stroke-width:0.31999999;stroke-linecap:butt;stroke-linejoin:miter;stroke-miterlimit:4;stroke-dasharray:none;stroke-opacity:1"
   d="m 514.27428,781.28888 c -13.6234,23.23239 34.2099,17.4479 14.93,-1.675 -4.7198,-3.42966 -10.9359,-2.38684 -14.93,1.675 z" />
   <path
   id="rightEyeSmallTint"
   class="shade"
   style="fill:#ffffff;fill-opacity:1;fill-rule:nonzero;stroke:#ffffff;stroke-width:0.63999999;stroke-linecap:butt;stroke-linejoin:round;stroke-miterlimit:4;stroke-dasharray:none;stroke-opacity:1"
   d="m 664.99328,749.28988 c -18.0854,6.98785 7.0901,26.07096 8,6.72 -1.0052,-3.20344 -4.2826,-7.29425 -8,-6.72 z" />
   <path
   id="rightEyeBigTint"
   class="shade"
   style="fill:#ffffff;fill-opacity:1;fill-rule:nonzero;stroke:#ffffff;stroke-width:0.63999999;stroke-linecap:butt;stroke-linejoin:round;stroke-miterlimit:4;stroke-dasharray:none;stroke-opacity:1"
   d="m 641.31328,734.56988 c -23.1654,13.48053 16.2235,36.19796 16.84,10.08 -0.554,-8.7522 -8.8039,-13.74638 -16.84,-10.08 z" />
   <path
   id="jawShade"
   class="shade"
   style="fill:#9a8179;fill-opacity:1;fill-rule:nonzero;stroke:#9a8179;stroke-width:3.83999991;stroke-linecap:butt;stroke-linejoin:miter;stroke-miterlimit:4;stroke-dasharray:none;stroke-opacity:1"
   d="m 399.07528,816.80888 c -15.3356,4.76402 -33.8643,9.2884 -41.68,24.89909 -5.6301,12.96044 1.3579,27.41901 8.6686,38.21253 10.4127,13.62351 25.842,25.66249 43.5682,26.32365 13.9182,-0.0162 27.0424,-5.74363 39.0552,-12.28785 38.9002,22.65515 79.197,46.85331 124.908,51.60811 8.9443,0.89592 17.9747,0.9776 26.9281,0.15697 -10.8,-5.52231 -23.5025,-6.24815 -34.8353,-10.63905 -52.7802,-14.94511 -105.2534,-39.41872 -141.5372,-81.81391 -9.5422,-11.26995 -17.8096,-23.61652 -25.0756,-36.45954 z" />
   <path
   id="backheadShade"
   class="shade"
   style="fill:#171717;fill-opacity:1;fill-rule:nonzero;stroke:#181818;stroke-width:3.83999991;stroke-linecap:butt;stroke-linejoin:miter;stroke-miterlimit:4;stroke-dasharray:none;stroke-opacity:1"
   d="m 399.39528,813.28888 c -13.7364,-51.15624 -27.1084,-105.88806 -11.2622,-158.23023 0.9887,-6.00064 11.5337,-30.35816 3.8009,-14.00791 -18.4075,32.68257 -26.3996,70.6153 -22.8387,107.96372 1.6528,24.26835 6.0082,48.26766 11.42,71.95442 6.5653,-1.56175 14.1075,-2.3256 18.88,-7.68 z" />
   <path
   id="backHairShade"
   class="shade"
   style="fill:#181818;fill-opacity:1;fill-rule:nonzero;stroke:#181818;stroke-width:4.15999985;stroke-linecap:butt;stroke-linejoin:round;stroke-miterlimit:4;stroke-dasharray:none;stroke-opacity:1"
   d="m 447.39428,624.48988 c 0.1567,5.96685 -1.6426,12.70467 4.48,16.32 13.9345,-19.52961 35.4829,-31.03922 54.72,-44.48 -14.4055,5.0496 -28.9089,9.88582 -41.7475,18.35331 -5.8175,3.2689 -11.635,6.5378 -17.4525,9.80669 z" />
   <path
   id="frontHairShade"
   class="shade"
   style="fill:#181818;fill-opacity:1;fill-rule:nonzero;stroke:#181818;stroke-width:3.83999991;stroke-linecap:butt;stroke-linejoin:miter;stroke-miterlimit:4;stroke-dasharray:none;stroke-opacity:1"
   d="m 558.43328,626.72988 c 39.0951,-6.12608 72.6235,18.12397 106.88,32.32 -25.8285,-27.35425 -61.0698,-50.53527 -100.16,-48 -4.4221,3.95881 -6.5013,9.86066 -6.72,15.68 z" />
   <path
   id="foreheadShade"
   class="shade"
   style="fill:#9a8179;fill-opacity:1;fill-rule:nonzero;stroke:#9a8179;stroke-width:3.83999991;stroke-linecap:butt;stroke-linejoin:miter;stroke-miterlimit:4;stroke-dasharray:none;stroke-opacity:1"
   d="m 429.15428,738.72988 c 60.2761,3.32632 120.7657,-16.23383 168.639,-52.8 -3.0731,-8.8671 -5.9655,-17.69153 -13.9947,-5.41523 -43.3853,35.78347 -99.0328,54.17798 -154.6443,58.21523 z" />
   <path
   id="lines1"
   class="line"
   style="fill:none;stroke:#000000;stroke-width:3.83999991"
   d="m 526.43328,757.92988 c 79.2047,7.78078 72.6777,114.43784 12.954,123.33482 -78.7553,-5.71575 -73.0224,-101.88127 -12.954,-123.33482 z" />
   <path
   id="lines2"
   class="line"
   style="fill:none;stroke:#000000;stroke-width:3.83999991"
   d="m 539.87428,880.81388 c -98.1162,18.86577 -105.4357,-124.52494 -13.44,-122.885" />
   <path
   id="lines3"
   class="line"
   style="fill:none;stroke:#000000;stroke-width:3.83999991"
   d="m 652.83328,719.20888 c 78.1772,11.74101 42.7906,123.12265 -3.4052,104.49962 -48.0639,-22.31459 -43.7795,-88.16123 3.4052,-104.49962 z" />
   <path
   id="lines4"
   class="line"
   style="fill:none;stroke:#000000;stroke-width:3.83999991"
   d="m 637.47328,834.72888 c 113.7162,-13.62889 73.0019,-125.21531 15.36,-115.52 -19.6432,1.13381 -31.9578,4.91189 -42.56,8" />
   <path
   id="lines5"
   class="line"
   style="fill:none;stroke:#000000;stroke-width:3.83999991"
   d="m 638.75328,835.36888 c -52.1093,-21.01429 -59.6764,-69.84092 -28.48,-108.16" />
   <path
   id="lines6"
   class="line"
   style="fill:none;stroke:#000000;stroke-width:3.83999991"
   d="m 638.11328,835.04888 c -6.8507,38.10239 -19.408,74.98511 -34.88,110.4" />
   <path
   id="lines7"
   class="line"
   style="fill:none;stroke:#000000;stroke-width:3.83999991"
   d="m 448.68728,893.9563 c 45.5993,26.57551 100.6808,60.51216 153.586,52.13258 2.1339,-0.17552 -2.1143,0.33904 0,0" />
   <path
   id="lines8"
   class="line"
   style="fill:none;stroke:#000000;stroke-width:3.83999991"
   d="m 382.11328,821.92888 c -80.1161,39.6821 32.1445,116.2418 66.574,72.02742" />
   <path
   id="lines9"
   class="line"
   style="fill:none;stroke:#000000;stroke-width:3.83999991"
   d="m 382.11328,821.92888 c -33.3709,-89.58384 -21.8725,-203.02025 78.4,-230.718" />
   <path
   id="lines10"
   class="line"
   style="fill:none;stroke:#000000;stroke-width:3.83999991"
   d="m 460.51428,591.21088 c -7.8834,8.40386 -10.6899,20.1851 -11.52,31.36" />
   <path
   id="lines11"
   class="line"
   style="fill:none;stroke:#000000;stroke-width:3.83999991"
   d="m 448.99428,622.57088 c 43.4527,-27.45249 95.8477,-43.32381 147.518,-37.441" />
   <path
   id="lines12"
   class="line"
   style="fill:none;stroke:#000000;stroke-width:3.83999991"
   d="m 596.51228,585.12988 c -11.9736,5.24941 -21.9626,14.2102 -30.08,24.32" />
   <path
   id="lines13"
   class="line"
   style="fill:none;stroke:#000000;stroke-width:3.83999991"
   d="m 566.43328,609.45088 c -3.9048,4.38923 -8.0384,9.47457 -8,15.68" />
   <path
   id="lines14"
   class="line"
   style="fill:none;stroke:#000000;stroke-width:3.83999991"
   d="m 566.43228,609.44988 c 38.5708,1.08235 72.8672,22.97327 100.16,48.64" />
   <path
   id="lines15"
   class="line"
   style="fill:none;stroke:#000000;stroke-width:3.83999991"
   d="m 666.59228,658.08988 c -25.2861,-0.93692 -51.0577,3.25585 -73.92,14.4" />
   <path
   id="lines16"
   class="line"
   style="fill:none;stroke:#000000;stroke-width:3.83999991"
   d="m 429.15428,738.72988 c 59.6567,-4.58454 116.7052,-29.49885 163.52,-66.24" />
   <path
   id="lines17"
   class="line"
   style="fill:none;stroke:#000000;stroke-width:3.83999991"
   d="m 382.11328,821.92888 c 43.4447,-16.54532 49.3332,-46.12996 47.04,-83.2" />
   <path
   id="lines18"
   class="line"
   style="fill:none;stroke:#000000;stroke-width:3.83999991"
   d="m 610.27328,727.20888 c -3.3124,-18.70495 -9.1604,-37.22261 -17.92,-54.079" />
   <path
   id="lines19"
   class="line"
   style="fill:none;stroke:#000000;stroke-width:3.83999991"
   d="m 418.91528,856.16888 c -53.0645,-13.54691 -29.2372,45.62389 -3.84,16.96" />
   <path
   id="lines20"
   class="line"
   style="fill:none;stroke:#000000;stroke-width:3.83999991"
   d="m 576.35428,911.52888 c 11.4457,-6.73588 22.5173,-15.47232 28.159,-27.84" />
</svg>