<svg xmlns="http://www.w3.org/2000/svg" height="500" width="800" viewBox="0 0 800 500">
    <path id="hair" class="shade"
    style="fill:#312929;fill-opacity:1;fill-rule:nonzero;stroke:none;stroke-width:4"
    d="m 249.76192,305.376 c -4.14064,-14.81568 -6.2759,-34.10848 -9.03708,-50.72733 -6.39511,-48.53633 -5.43133,-102.95898 26.30893,-143.18993 11.10558,-15.294918 27.91962,-25.277458 46.08003,-29.664437 4.10201,-0.682841 16.44015,-9.196305 10.37051,-0.208306 -4.33798,7.099864 -13.6935,34.169103 1.47761,20.591003 29.16454,-16.991297 61.45366,-29.523755 94.86517,-34.580936 13.57196,-0.812716 27.01177,1.747359 40.49383,2.900937 -8.25404,7.940706 -19.61107,13.359695 -25.92,22.72 38.0844,2.037556 72.17,23.177289 99.06212,48.939379 -6.85106,2.37581 -27.50231,-0.52607 -39.33625,3.16375 -17.32356,1.42383 -32.60892,10.3838 -46.28687,20.53687 -43.35668,30.73622 -94.29898,52.04884 -147.464,56.85 -6.66152,6.47001 -0.11237,27.96215 -5.25687,39.6668 -4.24142,22.26047 -23.14419,39.27185 -45.03813,43.6422 z"
    />
    <path id="face" class="shade"
    style="fill:#efcebd;fill-opacity:1;fill-rule:nonzero;stroke:none;stroke-width:4"
    d="M 456.15992,430.175 C 406.3741,428.39211 362.464,402.22357 319.56967,379.68125 c -12.65594,-5.54369 -24.74443,14.48778 -40.2782,10.77781 -26.51654,-0.42335 -48.75487,-23.75238 -55.23518,-48.31531 -5.4398,-18.92392 13.33247,-31.78863 29.22463,-36.12775 21.81863,-5.97249 41.41617,-23.43182 43.67148,-46.91352 3.29299,-15.19856 -6.56396,-41.39531 18.70165,-37.84398 37.54324,-5.74581 74.23201,-17.62722 106.47553,-37.98784 13.13589,-3.37221 30.04659,-28.98432 40.22076,-18.98366 5.07695,16.63334 20.3755,36.27496 11.3002,53.19344 -13.7542,18.3016 -23.23592,43.98202 -11.91312,65.79906 8.62032,17.49344 26.09654,28.75866 43.3825,36.8165 -8.00524,36.00398 -16.64594,72.30451 -31.80625,106.05625 -2.56307,6.59635 -11.83844,2.78543 -17.15375,4.02275 z m -1.28,-40 c 6.87656,-3.80189 19.38046,-19.27694 16.285,-21.26 -1.34943,12.9642 -26.34536,21.39606 -24.7,27.56 3.2373,-1.42346 5.49578,-4.37708 8.415,-6.3 z m -24.64,-34.56 c 30.43458,-24.38664 31.47486,-77.28873 -0.53375,-100.824 -23.77385,-21.23615 -60.60451,-14.53757 -83.62625,4.185 -19.83319,20.23263 -24.70309,54.38306 -10.02119,78.955 12.35248,25.0954 43.76697,33.37911 69.62969,28.77563 9.34801,-0.57952 17.61636,-5.01531 24.5515,-11.09163 z m -148.479,4.48 c 2.22775,-7.20227 -18.74083,13.69844 -23.48,-0.52 -17.17151,-22.97847 16.9734,-20.69895 28.145,-19.675 -13.86326,-5.56872 -45.87032,-4.51846 -31.065,17.595 5.73796,11.14121 17.8726,8.60518 26.4,2.6 z"
    />
    <path id="rightEyeLeftFill" class="shade"
    style="fill:#00adef;fill-opacity:1;fill-rule:nonzero;stroke:none;stroke-width:4"
    d="m 525.59992,314.976 c -16.38839,6.3829 -32.86852,-0.3136 -45.37445,-11.40078 -25.27378,-18.87186 -29.51628,-60.80327 -8.11805,-83.95203 10.42636,-11.11047 26.43123,-12.86892 40.6925,-15.04719 -11.60322,9.1473 -24.40134,19.32227 -28.53062,34.53356 -8.90241,26.51634 4.30469,61.16623 33.04554,68.38332 5.45359,1.68671 22.90341,3.58349 8.28508,7.48312 z"
    />
    <path id="leftEyeLeftFill" class="shade"
    style="fill:#00adef;fill-opacity:1;fill-rule:nonzero;stroke:none;stroke-width:4"
    d="m 375.84092,365.856 c -30.47073,-5.78363 -53.21739,-38.29544 -46.10938,-68.88313 1.83034,-21.24734 13.69355,-45.09311 37.00972,-48.24807 6.33065,-1.63343 12.64435,-3.33499 19.01966,-4.7888 -15.8413,9.98879 -28.45556,26.44469 -35.13969,43.90617 -9.85835,29.28995 7.64945,63.27929 36.29031,74.01071 15.11045,6.47177 -7.86793,4.43827 -11.07062,4.00312 z"
    />
    <path id="rightEyeRightFill" class="shade"
    style="fill:#4c7287;fill-opacity:1;fill-rule:nonzero;stroke:none;stroke-width:4"
    d="m 554.07992,297.696 c 20.69876,-24.01073 16.01899,-62.20314 -5.44,-84.16 -9.91216,-1.64986 -16.29898,-11.1305 -1.6,-7.04 23.74442,12.99025 41.81642,44.02961 28.54703,70.40148 -5.15136,12.63525 -13.11149,25.75207 -27.16548,29.23621 -5.38952,2.95993 5.52411,-7.28188 5.65845,-8.43769 z"
    />
    <path id="leftEyeFill" class="shade"
    style="fill:#8ccef7;fill-opacity:1;fill-rule:nonzero;stroke:none;stroke-width:4"
    d="m 400.80092,364.896 c -42.46211,-3.82902 -67.18093,-59.07024 -43.125,-93.84 11.64293,-18.21879 34.76459,-34.32047 56.76883,-23.88461 18.83143,6.89707 33.23115,23.57078 36.44367,43.53117 8.21601,30.4185 -10.22973,69.47686 -43.0475,74.51844 l -3.43,6.3e-4 z"
    />
    <path id="rightEyeFill" class="shade"
    style="fill:#8ccef7;fill-opacity:1;fill-rule:nonzero;stroke:none;stroke-width:4"
    d="m 525.59992,309.536 c -28.12357,-4.85494 -48.64871,-35.29858 -41.37813,-63.19023 4.40851,-19.56774 20.60949,-41.5661 42.37313,-41.09977 26.71271,4.89712 44.72392,32.1904 41.01777,58.62276 -2.05931,18.39389 -11.45918,40.06186 -30.60964,45.58599 -3.77715,0.49952 -7.61827,0.49618 -11.40313,0.0813 z"
    />
    <path id="leftEyeSmallTint" class="shade"
    style="fill:#ffffff;fill-opacity:1;fill-rule:nonzero;stroke:#ffffff;stroke-width:0.31999999;stroke-linecap:butt;stroke-linejoin:miter;stroke-miterlimit:4;stroke-dasharray:none;stroke-opacity:1"
    d="m 403.67992,281.056 c -4.05314,24.23374 28.83188,-0.96837 2.155,-1.325 z"
    />
    <path id="leftEyeBigTint" class="shade"
    style="fill:#ffffff;fill-opacity:1;fill-rule:nonzero;stroke:#ffffff;stroke-width:0.31999999;stroke-linecap:butt;stroke-linejoin:miter;stroke-miterlimit:4;stroke-dasharray:none;stroke-opacity:1"
    d="m 382.24092,265.696 c -13.62336,23.23239 34.20992,17.4479 14.93,-1.675 -4.7198,-3.42966 -10.9359,-2.38684 -14.93,1.675 z"
    />
    <path id="rightEyeSmallTint" class="shade"
    style="fill:#ffffff;fill-opacity:1;fill-rule:nonzero;stroke:#ffffff;stroke-width:0.63999999;stroke-linecap:butt;stroke-linejoin:round;stroke-miterlimit:4;stroke-dasharray:none;stroke-opacity:1"
    d="m 532.95992,233.697 c -18.08538,6.98785 7.09016,26.07096 8,6.72 -1.00515,-3.20344 -4.2826,-7.29425 -8,-6.72 z"
    />
    <path id="rightEyeBigTint" class="shade"
    style="fill:#ffffff;fill-opacity:1;fill-rule:nonzero;stroke:#ffffff;stroke-width:0.63999999;stroke-linecap:butt;stroke-linejoin:round;stroke-miterlimit:4;stroke-dasharray:none;stroke-opacity:1"
    d="m 509.27992,218.977 c -23.16535,13.48053 16.22355,36.19796 16.84,10.08 -0.55392,-8.7522 -8.80383,-13.74638 -16.84,-10.08 z"
    />
    <path id="jawShade" class="shade"
    style="fill:#9a8179;fill-opacity:1;fill-rule:nonzero;stroke:#9a8179;stroke-width:3.83999991;stroke-linecap:butt;stroke-linejoin:miter;stroke-miterlimit:4;stroke-dasharray:none;stroke-opacity:1"
    d="m 267.04192,301.216 c -15.3356,4.76402 -33.86429,9.2884 -41.67997,24.89909 -5.63006,12.96044 1.35788,27.41901 8.66863,38.21253 10.4127,13.62351 25.84195,25.66249 43.56818,26.32365 13.91819,-0.0162 27.04238,-5.74363 39.05524,-12.28785 38.90017,22.65515 79.19694,46.85331 124.90796,51.60811 8.94433,0.89592 17.97474,0.9776 26.9281,0.15697 -10.80002,-5.52231 -23.5025,-6.24815 -34.83529,-10.63905 C 380.87459,404.54434 328.40136,380.07073 292.11758,337.67554 282.57535,326.40559 274.30793,314.05902 267.04192,301.216 Z"
    />
    <path id="backheadShade" class="shade"
    style="fill:#171717;fill-opacity:1;fill-rule:nonzero;stroke:#181818;stroke-width:3.83999991;stroke-linecap:butt;stroke-linejoin:miter;stroke-miterlimit:4;stroke-dasharray:none;stroke-opacity:1"
    d="M 267.36192,297.696 C 253.6256,246.53976 240.25353,191.80794 256.09976,139.46576 c 0.98871,-6.00063 11.53375,-30.35816 3.80091,-14.0079 -18.40755,32.68257 -26.39958,70.6153 -22.83875,107.96372 1.65281,24.26835 6.0082,48.26766 11.42,71.95442 6.56537,-1.56175 14.10751,-2.3256 18.88,-7.68 z"
    />
    <path id="backHairShade" class="shade"
    style="fill:#181818;fill-opacity:1;fill-rule:nonzero;stroke:#181818;stroke-width:4.15999985;stroke-linecap:butt;stroke-linejoin:round;stroke-miterlimit:4;stroke-dasharray:none;stroke-opacity:1"
    d="m 315.36092,108.897 c 0.1567,5.96685 -1.64254,12.70466 4.48,16.32 13.93454,-19.52961 35.4829,-31.039226 54.72,-44.479999 -14.4055,5.049599 -28.90882,9.885815 -41.74741,18.353305 -5.81753,3.268894 -11.63506,6.537794 -17.45259,9.806694 z"
    />
    <path id="frontHairShade" class="shade"
    style="fill:#181818;fill-opacity:1;fill-rule:nonzero;stroke:#181818;stroke-width:3.83999991;stroke-linecap:butt;stroke-linejoin:miter;stroke-miterlimit:4;stroke-dasharray:none;stroke-opacity:1"
    d="m 426.39992,111.137 c 39.09517,-6.12609 72.62355,18.12396 106.88,32.32 -25.82848,-27.35425 -61.06978,-50.535278 -100.16,-47.999999 -4.42206,3.958809 -6.50128,9.860659 -6.72,15.679999 z"
    />
    <path id="foreheadShade" class="shade"
    style="fill:#9a8179;fill-opacity:1;fill-rule:nonzero;stroke:#9a8179;stroke-width:3.83999991;stroke-linecap:butt;stroke-linejoin:miter;stroke-miterlimit:4;stroke-dasharray:none;stroke-opacity:1"
    d="m 297.12092,223.137 c 60.27617,3.32632 120.76577,-16.23383 168.639,-52.8 -3.07308,-8.8671 -5.96541,-17.69153 -13.99469,-5.41523 -43.38529,35.78347 -99.0328,54.17798 -154.64431,58.21523 z"
    />
    <path id="lines1" class="line"
    style="fill:none;stroke:#000000;stroke-width:3.83999991"
    d="m 394.39992,242.337 c 79.20475,7.78078 72.67773,114.43784 12.95405,123.33482 C 328.59863,359.95607 334.33156,263.79055 394.39992,242.337 Z"
    />
    <path id="lines2" class="line"
    style="fill:none;stroke:#000000;stroke-width:3.83999991"
    d="m 407.84092,365.221 c -98.11616,18.86577 -105.43569,-124.52494 -13.44,-122.885"
    />
    <path id="lines3" class="line"
    style="fill:none;stroke:#000000;stroke-width:3.83999991"
    d="m 520.79992,203.616 c 78.17725,11.74101 42.79063,123.12265 -3.40512,104.49962 -48.06395,-22.31459 -43.77953,-88.16123 3.40512,-104.49962 z"
    />
    <path id="lines4" class="line"
    style="fill:none;stroke:#000000;stroke-width:3.83999991"
    d="m 505.43992,319.136 c 113.71622,-13.62889 73.00191,-125.21531 15.36,-115.52 -19.64316,1.13381 -31.95772,4.91189 -42.56,8"
    />
    <path id="lines5" class="line"
    style="fill:none;stroke:#000000;stroke-width:3.83999991"
    d="m 506.71992,319.776 c -52.10921,-21.01429 -59.67635,-69.84092 -28.48,-108.16"
    />
    <path id="lines6" class="line"
    style="fill:none;stroke:#000000;stroke-width:3.83999991"
    d="m 506.07992,319.456 c -6.85062,38.10239 -19.40798,74.98511 -34.88,110.4"
    />
    <path id="lines7" class="line"
    style="fill:none;stroke:#000000;stroke-width:3.83999991"
    d="m 316.654,378.36342 c 45.59922,26.57551 100.68072,60.51216 153.58592,52.13258 2.13399,-0.17552 -2.11427,0.33904 0,0"
    />
    <path id="lines8" class="line"
    style="fill:none;stroke:#000000;stroke-width:3.83999991"
    d="m 250.07992,306.336 c -80.11607,39.6821 32.14458,116.2418 66.57408,72.02742"
    />
    <path id="lines9" class="line"
    style="fill:none;stroke:#000000;stroke-width:3.83999991"
    d="m 250.07992,306.336 c -33.37089,-89.58384 -21.87248,-203.02026 78.4,-230.717999"
    />
    <path id="lines10" class="line"
    style="fill:none;stroke:#000000;stroke-width:3.83999991"
    d="m 328.48092,75.618001 c -7.88338,8.403855 -10.68987,20.185097 -11.52,31.359999"
    />
    <path id="lines11" class="line"
    style="fill:none;stroke:#000000;stroke-width:3.83999991"
    d="m 316.96092,106.978 c 43.45272,-27.452495 95.84775,-43.323811 147.518,-37.440999"
    />
    <path id="lines12" class="line"
    style="fill:none;stroke:#000000;stroke-width:3.83999991"
    d="m 464.47892,69.537001 c -11.97359,5.249406 -21.96258,14.210197 -30.08,24.32"
    />
    <path id="lines13" class="line"
    style="fill:none;stroke:#000000;stroke-width:3.83999991"
    d="m 434.39992,93.858001 c -3.90473,4.389221 -8.03837,9.474569 -8,15.679999"
    />
    <path id="lines14" class="line"
    style="fill:none;stroke:#000000;stroke-width:3.83999991"
    d="m 434.39892,93.857001 c 38.57084,1.082347 72.86725,22.973269 100.16,48.639999"
    />
    <path id="lines15" class="line"
    style="fill:none;stroke:#000000;stroke-width:3.83999991"
    d="m 534.55892,142.497 c -25.28601,-0.93692 -51.05768,3.25585 -73.92,14.4"
    />
    <path id="lines16" class="line"
    style="fill:none;stroke:#000000;stroke-width:3.83999991"
    d="m 297.12092,223.137 c 59.65671,-4.58454 116.70526,-29.49885 163.52,-66.24"
    />
    <path id="lines17" class="line"
    style="fill:none;stroke:#000000;stroke-width:3.83999991"
    d="m 250.07992,306.336 c 43.44477,-16.54532 49.33323,-46.12996 47.04,-83.2"
    />
    <path id="lines18" class="line"
    style="fill:none;stroke:#000000;stroke-width:3.83999991"
    d="m 478.23992,211.616 c -3.31232,-18.70495 -9.16037,-37.22261 -17.92,-54.079"
    />
    <path id="lines19" class="line"
    style="fill:none;stroke:#000000;stroke-width:3.83999991"
    d="m 286.88192,340.576 c -53.06449,-13.54691 -29.23712,45.62389 -3.84,16.96"
    />
    <path id="lines20" class="line"
    style="fill:none;stroke:#000000;stroke-width:3.83999991"
    d="m 444.32092,395.936 c 11.44571,-6.73588 22.5173,-15.47232 28.159,-27.84"
    />
    <path id="bracket1" class="line"
    style="fill:#00c1c1;fill-opacity:1;stroke:#09616c;stroke-width:7.67999983;"
    d="m 68.378313,250 c 10.56,-8 17.6,-15.36 21.12,-22.72 4.8,-8.96 7.36,-20.16 7.36,-32.96 V 81.681001 c 0,-11.52 3.519997,-21.12 10.239997,-29.12 7.04,-7.680001 15.36,-11.840001 25.6,-12.800002 6.72,-0.64 10.88,-1.6 12.8,-3.52 2.88,-2.88 4.16,-6.08 4.16,-9.92 0,-3.52 -1.28,-6.72 -3.84,-9.28 -2.56,-2.56 -6.72,-3.84 -11.84,-3.84 -16.64,0 -30.4,5.44 -41.279997,16 -14.72,14.400001 -22.08,31.680002 -22.08,52.480002 V 194.321 c 0,11.52 -3.52,21.12 -10.240003,29.12 -7.04,7.68 -16,11.84 -26.56,12.8 -5.76,0.64 -9.6,1.92 -11.84,4.16 -2.56,2.56 -3.84,5.439 -3.84,9.599 0,4.16 1.28,7.36 3.84,9.6 2.24,2.24 6.08,3.84 11.84,4.48 10.56,0.64 19.52,5.12 26.56,13.12 6.720003,7.68 10.240003,17.28 10.240003,28.48 v 112.639 c 0,19.52 6.08,35.84 18.56,48.64 12.799997,13.12 27.519997,19.84 44.799997,19.84 5.12,0 9.28,-1.28 11.84,-3.84 2.56,-2.56 3.84,-5.76 3.84,-9.6 0,-3.84 -1.28,-7.04 -3.84,-9.28 -1.92,-1.92 -6.4,-3.2 -13.12,-3.84 -10.24,-0.96 -18.88,-5.44 -25.6,-13.44 -6.72,-7.68 -10.239997,-17.28 -10.239997,-28.8 v -112.32 c 0,-13.12 -2.24,-23.68 -6.4,-31.68 -4.16,-8.32 -11.52,-16.32 -22.08,-23.999 z"
    />
    <path id="bracket2" class="line"
    style="fill:#00c1c1;fill-opacity:1;stroke:#09616c;stroke-width:7.67999983;"
    d="m 731.6217,249.84 c -10.56,-8 -17.6,-15.36 -21.12,-22.4 -4.8,-9.28 -7.36,-20.16 -7.36,-33.28 V 81.841001 c 0,-11.84 -3.2,-21.44 -10.24,-29.12 -6.72,-7.680001 -15.36,-12.16 -25.6,-12.8 -6.72,-0.64 -10.88,-1.92 -12.8,-3.84 -2.88,-2.56 -4.16,-5.76 -4.16,-9.6 0,-3.84 1.28,-7.04 3.84,-9.28 2.56,-2.56 6.72,-3.84 11.84,-3.84 16.64,0 30.4,5.12 41.28,16 14.72,14.08 22.08,31.68 22.08,52.48 V 194.161 c 0,11.52 3.52,21.12 10.56,29.12 7.04,7.68 15.68,11.84 26.56,12.8 5.44,0.64 9.28,2.24 11.84,4.48 2.24,2.24 3.52,5.44 3.52,9.279 0,4.16 -1.28,7.36 -3.52,9.6 -2.56,2.56 -6.4,3.84 -11.84,4.48 -10.88,0.96 -19.84,5.12 -26.56,13.12 -7.04,7.68 -10.56,17.28 -10.56,28.8 v 112.319 c 0,19.84 -6.08,35.84 -18.56,48.96 -12.48,13.12 -27.52,19.52 -44.8,19.52 -5.12,0 -9.28,-1.28 -11.84,-3.52 -2.56,-2.56 -3.84,-5.76 -3.84,-9.92 0,-3.52 1.28,-6.72 3.84,-9.28 1.92,-1.92 6.4,-3.2 13.12,-3.84 10.56,-0.96 18.88,-5.44 25.6,-13.44 7.04,-7.68 10.24,-17.28 10.24,-28.8 v -112 c 0,-13.12 2.24,-23.68 6.4,-32 4.16,-8 11.52,-15.999 22.08,-23.999 z"
    />
</svg>
